<?xml version="1.0" standalone="no"?>
<!DOCTYPE svg PUBLIC "-//W3C//DTD SVG 20010904//EN"
 "http://www.w3.org/TR/2001/REC-SVG-20010904/DTD/svg10.dtd">
<svg version="1.0" xmlns="http://www.w3.org/2000/svg"
 width="512.000000pt" height="512.000000pt" viewBox="0 0 512.000000 512.000000"
 preserveAspectRatio="xMidYMid meet">

<g transform="translate(0.000000,512.000000) scale(0.100000,-0.100000)"
fill="#000000" stroke="none">
<path d="M3458 4912 c-84 -28 -167 -92 -209 -159 -11 -17 -74 -188 -140 -380
-115 -332 -120 -351 -116 -413 7 -111 64 -188 175 -239 51 -24 52 -25 46 -60
-15 -83 -47 -163 -84 -212 -46 -62 -50 -90 -15 -124 44 -45 91 -29 146 51 32
47 89 190 89 224 0 29 14 32 65 10 98 -42 192 -17 232 61 21 41 24 69 38 390
19 440 19 425 -5 449 -25 25 -71 26 -101 1 -22 -18 -23 -23 -38 -394 -9 -206
-19 -378 -23 -382 -10 -10 -309 124 -340 153 -58 53 -57 66 28 313 42 123 94
278 116 343 65 191 126 240 293 238 228 -3 561 -25 587 -38 39 -20 50 -41 103
-196 26 -76 53 -145 60 -154 8 -12 71 -28 226 -56 117 -22 214 -40 215 -41 7
-7 -78 -284 -96 -312 -43 -69 -123 -95 -298 -95 -59 0 -172 -3 -252 -7 -132
-6 -146 -8 -167 -29 -28 -28 -29 -64 -4 -95 18 -23 24 -24 123 -21 l105 3 27
-163 c21 -133 30 -166 47 -180 44 -37 119 -9 119 45 0 12 -9 82 -21 155 -12
73 -20 135 -17 137 3 3 61 10 129 15 74 5 144 16 173 27 66 24 149 101 179
166 29 61 117 376 117 417 0 50 -30 63 -256 104 -115 20 -217 40 -226 42 -11
3 -30 46 -58 130 -50 148 -83 197 -161 237 -50 26 -69 29 -210 37 -85 5 -242
11 -349 14 -174 6 -201 4 -252 -12z"/>
<path d="M4024 4536 c-50 -42 -31 -127 31 -138 86 -17 136 88 68 142 -34 26
-66 25 -99 -4z"/>
<path d="M2822 4357 c-31 -14 -123 -206 -151 -313 -63 -242 -40 -501 64 -721
60 -128 106 -194 208 -300 l89 -92 -31 -175 c-34 -191 -32 -217 18 -234 35
-12 48 -7 249 110 l174 100 74 -12 c107 -17 294 -14 388 5 354 73 642 310 777
638 31 74 31 103 3 131 -16 16 -70 21 -90 8 -7 -4 -30 -46 -52 -94 -51 -109
-101 -185 -176 -265 -209 -224 -526 -332 -816 -278 -52 10 -106 18 -120 18
-14 0 -80 -33 -148 -73 -68 -39 -126 -69 -129 -67 -3 3 4 56 15 118 11 62 17
121 13 131 -4 10 -36 45 -73 76 -136 118 -224 247 -277 406 -83 251 -64 488
59 729 47 91 49 109 15 142 -26 27 -47 30 -83 12z"/>
<path d="M1862 3509 c-114 -15 -218 -94 -270 -207 -38 -84 -37 -193 2 -279 36
-78 110 -151 189 -183 l57 -24 0 -158 0 -158 -127 0 c-234 0 -418 -42 -618
-139 -239 -117 -426 -289 -562 -518 -25 -43 -52 -93 -60 -110 -13 -33 -14 -33
-81 -33 -37 0 -84 -5 -104 -10 -59 -17 -120 -69 -150 -129 l-28 -55 0 -260 c0
-231 3 -266 19 -301 34 -76 102 -128 194 -149 l48 -11 33 -85 c91 -244 297
-428 561 -502 80 -22 85 -22 925 -26 903 -3 976 -1 1109 44 233 77 434 274
511 501 l23 70 58 12 c95 19 175 93 200 183 6 25 9 134 7 286 l-3 247 -29 53
c-51 91 -127 132 -247 132 l-69 0 -29 58 c-181 358 -510 617 -901 709 -88 21
-139 26 -317 30 l-213 6 0 156 0 157 58 24 c80 33 162 116 191 194 26 71 30
180 7 244 -57 160 -210 253 -384 231z m113 -150 c23 -7 57 -28 81 -53 87 -86
83 -212 -9 -293 -100 -88 -252 -61 -314 56 -54 103 -8 231 102 282 46 21 84
23 140 8z m456 -1024 c368 -64 705 -321 863 -656 35 -74 41 -103 61 -322 8
-79 28 -107 75 -107 52 0 70 29 69 113 0 39 -4 98 -8 130 -4 32 -3 61 2 64 4
3 29 2 55 -2 32 -5 54 -15 74 -37 l28 -30 0 -240 0 -240 -34 -34 c-32 -32 -38
-34 -99 -34 -85 0 -103 -15 -123 -100 -8 -36 -33 -103 -56 -150 -33 -68 -57
-101 -127 -171 -71 -70 -102 -94 -171 -127 -156 -74 -125 -72 -1087 -72 -969
0 -936 -2 -1091 76 -187 94 -297 240 -361 480 -13 49 -40 64 -112 64 -61 0
-104 21 -124 60 -20 38 -22 451 -2 489 19 37 60 63 111 68 l47 6 -8 -99 c-11
-142 -10 -170 12 -193 25 -28 78 -28 105 1 14 16 20 35 20 72 1 109 29 267 59
332 153 327 472 577 832 653 84 18 136 20 500 20 315 1 425 -2 490 -14z"/>
<path d="M1410 1950 c-232 -60 -439 -237 -528 -453 -48 -116 -62 -204 -62
-401 0 -151 3 -183 20 -229 29 -76 79 -130 158 -169 l67 -33 890 0 890 0 56
26 c71 33 125 87 158 158 25 55 26 61 26 256 -1 232 -11 286 -80 430 -101 208
-284 357 -509 415 -74 19 -109 20 -545 19 -426 0 -472 -2 -541 -19z m1070
-144 c220 -72 385 -244 440 -462 16 -62 20 -110 20 -243 0 -153 -2 -169 -23
-206 -15 -26 -37 -48 -67 -63 l-45 -22 -867 2 c-862 3 -867 3 -895 24 -15 11
-38 36 -50 54 -22 31 -23 43 -23 211 0 208 8 255 62 369 33 68 57 101 122 166
80 79 129 113 216 148 106 42 145 45 610 43 397 -3 451 -5 500 -21z"/>
<path d="M1381 1452 c-67 -34 -90 -121 -48 -183 50 -76 141 -87 203 -25 45 45
52 92 25 150 -35 71 -109 95 -180 58z"/>
<path d="M2393 1450 c-89 -54 -82 -184 12 -230 58 -28 108 -19 153 27 31 33
38 57 33 113 -8 86 -121 137 -198 90z"/>
</g>
</svg>
