<?xml version="1.0" standalone="no"?>
<!DOCTYPE svg PUBLIC "-//W3C//DTD SVG 20010904//EN"
 "http://www.w3.org/TR/2001/REC-SVG-20010904/DTD/svg10.dtd">
<svg version="1.0" xmlns="http://www.w3.org/2000/svg"
 width="1024.000000pt" height="1024.000000pt" viewBox="0 0 1024.000000 1024.000000"
 preserveAspectRatio="xMidYMid meet">

<g transform="translate(0.000000,1024.000000) scale(0.100000,-0.100000)"
fill="#000000" stroke="none">
<path d="M2354 9082 c-112 -81 -228 -478 -291 -992 -25 -207 -25 -682 0 -870
27 -195 62 -358 110 -500 l42 -125 -17 -69 c-10 -38 -19 -70 -21 -72 -2 -2
-39 -9 -83 -14 -249 -32 -435 -164 -541 -385 -61 -129 -65 -168 -61 -655 l3
-435 31 -82 c91 -244 277 -410 537 -478 l67 -18 0 -56 c1 -436 151 -845 415
-1128 237 -255 517 -421 875 -519 206 -57 297 -64 781 -64 l429 0 0 -74 0 -75
-392 -4 c-318 -3 -403 -7 -445 -19 -198 -60 -350 -187 -435 -363 -43 -91 -62
-175 -79 -361 -10 -116 -10 -136 5 -189 35 -120 98 -193 215 -249 l66 -31
1545 -3 c1527 -2 1546 -2 1612 18 131 40 228 141 263 275 13 51 14 80 4 190
-14 179 -32 256 -80 354 -92 187 -294 337 -499 370 -37 6 -221 11 -422 11
l-358 0 0 74 0 74 478 5 c429 4 488 7 587 25 178 34 385 103 540 180 251 124
548 394 680 617 16 27 14 26 -11 -5 -70 -87 -149 -139 -245 -163 l-54 -14 -25
-72 c-59 -168 -182 -261 -346 -261 -55 0 -74 6 -150 45 l-87 45 -91 -31 c-114
-38 -241 -65 -375 -79 -66 -6 -575 -10 -1427 -10 -1433 0 -1439 0 -1642 55
-265 71 -496 208 -685 405 -186 194 -302 420 -354 692 -17 85 -18 175 -18
1098 0 990 0 1007 22 1125 81 444 328 822 698 1067 257 171 498 243 935 282
299 27 586 36 1140 36 670 0 924 -14 1275 -70 382 -62 666 -206 927 -471 210
-214 354 -478 418 -769 38 -170 42 -306 38 -1295 -4 -932 -5 -952 -26 -1045
-12 -52 -22 -96 -22 -97 0 -2 17 -11 38 -22 54 -28 98 -82 117 -143 20 -68 19
-113 -4 -188 -27 -87 -10 -63 33 47 78 196 132 466 138 687 l3 90 107 36 c261
90 430 253 509 495 22 68 23 84 27 484 4 483 0 518 -75 671 -37 76 -61 109
-122 170 -122 121 -242 179 -416 202 l-81 10 -16 74 c-17 72 -17 76 3 121 83
195 149 548 164 883 23 504 -136 1353 -284 1522 -42 48 -78 61 -155 56 -128
-8 -523 -230 -791 -444 -204 -163 -565 -540 -662 -692 -33 -52 -36 -53 -71
-48 -357 58 -1924 59 -2277 1 -28 -4 -33 0 -71 58 -96 146 -348 420 -533 580
-260 224 -529 398 -782 506 -124 53 -195 56 -255 13z m271 -323 c355 -197 673
-461 956 -792 38 -45 69 -85 69 -88 0 -3 -26 -12 -57 -19 -84 -18 -218 -64
-322 -109 -208 -90 -389 -215 -563 -388 -102 -101 -267 -304 -303 -373 -9 -16
-19 -30 -24 -30 -11 0 -48 220 -62 370 -15 163 -6 627 15 775 25 173 53 320
90 466 35 139 72 249 84 249 4 0 57 -28 117 -61z m5183 -41 c119 -386 178
-878 154 -1263 -12 -176 -52 -459 -70 -491 -6 -12 -17 -1 -45 44 -140 227
-380 466 -617 613 -156 97 -401 202 -558 239 -29 7 -52 16 -50 20 8 24 164
193 300 325 170 167 315 287 490 406 101 69 342 209 359 209 3 0 20 -46 37
-102z m-5688 -3289 l0 -741 -32 7 c-94 21 -211 105 -267 193 -60 95 -62 118
-59 569 l3 409 37 76 c63 126 138 181 316 227 1 1 2 -332 2 -740z m6145 705
c111 -44 201 -152 229 -274 23 -98 23 -744 1 -838 -21 -87 -59 -157 -114 -211
-49 -48 -153 -106 -210 -117 l-31 -6 0 740 0 740 43 -9 c23 -5 60 -17 82 -25z
m-1884 -3948 c91 -20 143 -48 209 -115 76 -76 106 -141 125 -271 20 -140 19
-176 -5 -215 -43 -70 74 -65 -1583 -65 l-1494 0 -34 23 c-58 39 -64 65 -50
195 15 136 33 201 72 264 62 96 152 159 263 183 93 20 2402 21 2497 1z"/>
<path d="M3765 6793 c-95 -12 -168 -27 -234 -49 -371 -124 -642 -425 -733
-814 -25 -108 -36 -414 -19 -553 21 -180 89 -347 202 -497 130 -173 321 -292
554 -346 76 -18 150 -19 1605 -19 l1525 0 88 22 c289 74 508 244 629 488 74
148 105 284 114 495 11 247 -25 457 -110 635 -151 320 -421 538 -767 621 -69
17 -167 18 -1449 20 -756 1 -1388 0 -1405 -3z m342 -812 c122 -56 203 -225
203 -426 0 -201 -79 -363 -205 -421 -91 -43 -178 -27 -259 47 -97 89 -141 222
-133 404 6 134 30 219 88 298 77 108 198 146 306 98z m2239 0 c123 -56 204
-225 204 -426 0 -154 -37 -266 -116 -354 -133 -148 -333 -109 -432 85 -74 145
-74 391 -1 536 75 150 219 216 345 159z"/>
<path d="M7031 4350 c-85 -36 -135 -118 -134 -220 0 -116 60 -190 154 -190
106 0 188 117 176 251 -9 97 -57 157 -133 165 -21 2 -50 -1 -63 -6z"/>
<path d="M7428 4200 c-135 -72 -175 -303 -64 -371 67 -41 164 -15 229 62 88
103 88 260 -1 312 -40 23 -117 21 -164 -3z"/>
<path d="M6568 4155 c-96 -65 -107 -247 -20 -338 74 -78 164 -75 226 6 53 70
55 188 4 279 -44 78 -138 102 -210 53z"/>
<path d="M4330 4103 c-79 -41 -102 -131 -56 -221 72 -142 214 -275 381 -359
158 -80 351 -119 534 -110 344 18 637 187 795 458 69 120 5 246 -122 236 -61
-4 -93 -29 -122 -94 -28 -63 -65 -108 -134 -159 -122 -92 -252 -140 -412 -151
-283 -19 -559 108 -665 306 -19 36 -46 73 -60 84 -38 27 -97 32 -139 10z"/>
<path d="M7022 3810 c-46 -10 -86 -31 -148 -81 -21 -17 -75 -48 -119 -68 -128
-60 -185 -140 -185 -257 1 -94 56 -169 145 -193 22 -6 83 -11 135 -11 103 0
141 -12 222 -68 107 -73 178 -89 256 -57 82 35 122 101 122 200 0 59 -5 76
-44 150 -29 55 -48 106 -55 152 -7 38 -22 86 -34 108 -52 92 -183 148 -295
125z"/>
<path d="M7645 3777 c-90 -36 -146 -97 -164 -177 -30 -133 67 -218 204 -180
56 16 132 81 156 135 34 75 18 176 -34 210 -33 21 -123 28 -162 12z"/>
</g>
</svg>
