<svg xmlns="http://www.w3.org/2000/svg" xmlns:xlink="http://www.w3.org/1999/xlink" width="500" zoomAndPan="magnify" viewBox="0 0 375 374.999991" height="500" preserveAspectRatio="xMidYMid meet" version="1.0"><defs><clipPath id="05488ee0f8"><path d="M 3 5 L 368 5 L 368 372.328125 L 3 372.328125 Z M 3 5 " clip-rule="nonzero"/></clipPath></defs><rect x="-37.5" width="450" fill="#ffffff" y="-37.499999" height="449.999989" fill-opacity="1"/><rect x="-37.5" width="450" fill="#ffffff" y="-37.499999" height="449.999989" fill-opacity="1"/><g clip-path="url(#05488ee0f8)"><path fill="#e91e63" d="M 164.367188 182.480469 C 143.828125 170.933594 127.011719 164.1875 125.347656 137.0625 C 125.066406 132.382812 124.675781 128.015625 124.171875 123.949219 C 123.839844 121.238281 122.386719 120.332031 119.808594 121.269531 C 105.613281 126.375 100.609375 142.8125 98.453125 156.949219 C 97.203125 165.082031 91.765625 176.917969 83.457031 179.699219 C 81.804688 180.234375 79.75 180.058594 77.304688 179.175781 C 65.152344 174.820312 49.832031 171.769531 37.1875 175.644531 C 36.652344 175.800781 36.238281 176.257812 36.160156 176.828125 C 34.507812 187.984375 51.269531 204.996094 58.382812 212.140625 C 71.617188 225.441406 78.164062 241.859375 79.570312 260.441406 C 80.027344 266.503906 79.414062 273.261719 77.703125 280.710938 C 76.1875 287.390625 74.375 293.988281 72.300781 300.5 C 72.132812 300.992188 71.832031 301.101562 71.40625 300.847656 C 34.886719 279.09375 7.335938 244.652344 3.675781 201.433594 C 0 158.203125 23.050781 117.527344 62.09375 98.746094 C 90.3125 85.164062 119.875 84.652344 150.765625 97.191406 C 151.277344 97.40625 151.578125 97.226562 151.667969 96.679688 C 159.574219 43.441406 200.882812 7.035156 254.535156 5.660156 C 369.472656 2.679688 375 132.972656 364.222656 213.359375 C 356.929688 267.878906 342.390625 320.78125 320.390625 371.941406 C 320.277344 372.175781 320.03125 372.320312 319.777344 372.320312 C 319.386719 372.320312 319.070312 372.007812 319.070312 371.628906 C 319.070312 371.59375 319.070312 371.558594 319.082031 371.539062 C 331.378906 306.53125 341.207031 237.671875 335.566406 173.089844 C 334.953125 165.996094 332.664062 155.933594 328.6875 142.878906 C 323.472656 125.726562 314.726562 111.019531 302.453125 98.765625 C 285.425781 81.738281 229.339844 71.941406 211.726562 90.132812 C 210.847656 91.050781 209.148438 93.640625 206.648438 97.90625 C 198.160156 112.371094 177.5 113.398438 162.535156 113.152344 C 150.851562 112.972656 127.335938 110.269531 128.417969 127.992188 C 129.65625 148.171875 141.25 163.015625 159.40625 171.769531 C 169.101562 176.460938 182.949219 182.558594 200.960938 190.074219 C 206.859375 192.542969 215.960938 199.355469 219.234375 204.894531 C 227.464844 218.730469 215.101562 235.550781 206.078125 245.902344 C 198.539062 254.535156 188.777344 266.046875 176.773438 280.421875 C 164.265625 295.40625 156.949219 311.789062 154.828125 329.582031 C 154.695312 330.675781 154.09375 331.101562 153.03125 330.855469 L 151.378906 330.484375 C 150.382812 330.273438 149.882812 329.648438 149.871094 328.609375 C 149.679688 303.839844 154.828125 277.628906 170.128906 257.996094 C 176.582031 249.722656 182.066406 240.886719 186.589844 231.484375 C 194.070312 215.949219 195.96875 202.191406 181.574219 190.96875 C 175.300781 186.085938 164.9375 189.179688 158.726562 192.699219 C 158.605469 192.777344 158.457031 192.808594 158.324219 192.808594 C 157.890625 192.808594 157.53125 192.488281 157.488281 192.074219 C 156.828125 186.8125 159.0625 183.910156 164.1875 183.351562 C 165.171875 183.261719 165.226562 182.972656 164.367188 182.480469 Z M 257.671875 102.003906 C 248.683594 121.816406 242.09375 142.410156 237.894531 163.785156 C 236.957031 168.53125 235.316406 178.949219 239.480469 181.574219 C 247.097656 186.332031 277.449219 166.867188 285.511719 161.707031 C 289.152344 159.40625 291.644531 156.949219 292.984375 154.347656 C 298.511719 143.671875 298.480469 127.144531 297.015625 115.675781 C 297.015625 115.664062 297.015625 115.652344 297.015625 115.628906 C 297.015625 115.304688 297.285156 115.039062 297.617188 115.039062 C 297.855469 115.039062 298.078125 115.183594 298.167969 115.40625 C 301.863281 125.9375 303.839844 136.523438 304.109375 147.144531 C 304.609375 166.375 266.203125 183.261719 250.78125 189.160156 C 240.238281 193.167969 225.410156 193.601562 227.507812 177.121094 C 229.472656 161.695312 232.421875 146.296875 238.910156 132.238281 C 244.082031 121.046875 250.300781 110.394531 257.570312 100.273438 C 257.648438 100.183594 257.75 100.128906 257.863281 100.128906 C 258.074219 100.128906 258.242188 100.296875 258.242188 100.507812 C 258.242188 100.542969 258.230469 100.578125 258.21875 100.609375 C 258.109375 100.988281 257.917969 101.457031 257.671875 102.003906 Z M 216.621094 104.496094 C 219.367188 110.136719 223.902344 115.875 227.820312 120.734375 C 227.867188 120.789062 227.898438 120.867188 227.921875 120.957031 C 228.023438 121.292969 227.820312 121.636719 227.496094 121.726562 C 227.40625 121.75 227.328125 121.75 227.242188 121.738281 C 222.347656 120.914062 217.402344 119.863281 212.398438 118.578125 C 202.144531 115.964844 204.523438 105.96875 212.722656 103.144531 C 214.574219 102.496094 215.882812 102.953125 216.621094 104.496094 Z M 140.859375 202.113281 C 132.472656 203.867188 125.199219 208.332031 118.703125 213.660156 C 118.578125 213.773438 118.410156 213.828125 118.242188 213.828125 C 117.851562 213.828125 117.527344 213.515625 117.527344 213.113281 C 117.527344 213.035156 117.539062 212.957031 117.574219 212.890625 C 120.34375 204.28125 132.394531 188.746094 141.382812 200.785156 C 141.484375 200.929688 141.550781 201.109375 141.550781 201.285156 C 141.550781 201.6875 141.261719 202.035156 140.859375 202.113281 Z M 170.117188 210.03125 L 168.921875 217.582031 C 168.699219 218.964844 167.648438 220.046875 166.285156 220.328125 C 162.746094 221.042969 159.339844 220.785156 156.070312 219.558594 C 155.140625 219.199219 154.527344 218.316406 154.527344 217.324219 C 154.527344 216.753906 154.738281 216.207031 155.097656 215.769531 C 158.546875 211.695312 162.914062 209.160156 168.183594 208.164062 C 168.296875 208.15625 168.398438 208.144531 168.5 208.144531 C 169.402344 208.144531 170.140625 208.871094 170.140625 209.773438 C 170.140625 209.863281 170.128906 209.953125 170.117188 210.03125 Z M 170.117188 210.03125 " fill-opacity="1" fill-rule="evenodd"/></g></svg>