<svg xmlns="http://www.w3.org/2000/svg" xmlns:xlink="http://www.w3.org/1999/xlink" width="500" zoomAndPan="magnify" viewBox="0 0 375 374.999991" height="500" preserveAspectRatio="xMidYMid meet" version="1.0"><defs><clipPath id="2af2d8f666"><path d="M 0 89 L 370 89 L 370 353.644531 L 0 353.644531 Z M 0 89 " clip-rule="nonzero"/></clipPath><clipPath id="a19e1d422d"><path d="M 18 22 L 373.5 22 L 373.5 316 L 18 316 Z M 18 22 " clip-rule="nonzero"/></clipPath></defs><rect x="-37.5" width="450" fill="#ffffff" y="-37.499999" height="449.999989" fill-opacity="1"/><rect x="-37.5" width="450" fill="#fffbfb" y="-37.499999" height="449.999989" fill-opacity="1"/><g clip-path="url(#2af2d8f666)"><path fill="#e91e63" d="M 190.34375 210.003906 C 188.476562 209.886719 180.523438 209.535156 179.003906 208.601562 C 180.757812 205.210938 186.722656 198.777344 192.683594 201.46875 C 192.800781 203.691406 191.046875 208.015625 190.34375 210.003906 Z M 186.722656 93.316406 C 186.953125 91.445312 187.539062 90.863281 188.007812 89.460938 C 181.578125 89.808594 169.652344 96.007812 165.558594 98.695312 C 162.285156 100.800781 159.011719 103.253906 156.4375 105.59375 C 152.113281 109.453125 151.644531 111.089844 148.019531 112.492188 C 141.589844 114.949219 135.742188 122.429688 132.9375 128.859375 C 128.960938 137.980469 127.910156 147.101562 127.910156 157.625 C 127.910156 175.394531 135.277344 198.894531 154.101562 185.101562 C 163.921875 177.96875 173.507812 163.703125 179.355469 149.671875 C 179.238281 160.664062 170.703125 178.667969 165.675781 184.398438 C 160.0625 190.710938 150.359375 198.195312 140.539062 195.039062 C 137.847656 194.21875 136.679688 193.167969 134.925781 191.414062 L 133.054688 190.011719 C 133.054688 205.09375 130.367188 215.148438 124.988281 226.605469 C 122.414062 231.867188 119.84375 236.195312 116.6875 240.871094 C 104.527344 259.34375 88.390625 274.777344 78.453125 290.914062 C 64.539062 313.242188 83.597656 301.433594 50.507812 312.191406 C 34.84375 317.21875 7.25 329.496094 0 341.773438 C 1.519531 340.953125 3.15625 339.667969 4.910156 338.617188 C 10.523438 335.226562 14.964844 333.355469 21.28125 331.132812 C 39.636719 324.703125 55.535156 323.414062 74.476562 320.726562 C 84.53125 319.324219 94.355469 319.558594 104.527344 318.855469 C 104.527344 295.589844 109.4375 285.066406 120.3125 266.828125 C 124.285156 260.277344 128.378906 254.550781 132.351562 248.003906 C 136.328125 241.339844 139.25 235.609375 142.640625 227.890625 L 144.277344 237.480469 C 145.800781 229.296875 145.917969 225.4375 148.722656 218.070312 C 151.175781 211.289062 163.804688 188.839844 170.117188 192.699219 C 171.753906 193.636719 173.507812 198.078125 174.210938 200.765625 C 175.378906 204.976562 175.027344 206.964844 175.378906 211.289062 C 188.359375 211.40625 198.648438 213.746094 200.519531 225.4375 C 220.980469 228.125 212.445312 232.453125 211.039062 236.078125 C 212.558594 236.195312 212.445312 235.960938 213.730469 236.660156 C 214.546875 249.40625 206.011719 254.199219 198.414062 258.992188 C 188.707031 265.074219 182.746094 268.230469 182.511719 280.507812 C 181.34375 280.273438 173.742188 273.140625 168.480469 272.90625 C 170.117188 273.957031 175.378906 279.101562 177.015625 280.738281 C 193.734375 298.394531 206.246094 318.269531 214.664062 341.421875 C 215.484375 343.527344 217.9375 352.296875 218.757812 353.582031 C 220.628906 350.191406 220.160156 341.890625 219.925781 337.445312 C 226.007812 338.03125 233.722656 340.019531 240.503906 340.953125 C 273.476562 345.515625 310.65625 344.34375 341.171875 331.015625 C 349.472656 327.507812 364.089844 319.558594 369.46875 313.359375 C 365.375 314.53125 360.230469 317.101562 355.554688 318.621094 C 327.375 327.859375 295.574219 328.675781 266.226562 324.351562 C 254.886719 322.714844 249.976562 321.078125 241.089844 319.558594 C 241.554688 317.6875 242.609375 315.933594 243.195312 314.0625 C 243.894531 312.308594 244.246094 310.203125 244.714844 307.984375 C 246.351562 309.621094 246.351562 310.789062 249.507812 311.375 C 248.339844 305.058594 243.542969 283.664062 247.402344 277.464844 C 250.441406 282.144531 251.261719 285.882812 252.78125 292.199219 C 254.066406 284.597656 251.496094 274.425781 249.039062 267.410156 C 248.222656 265.074219 246.933594 262.617188 246.351562 260.511719 C 248.339844 261.914062 249.039062 264.136719 250.558594 265.308594 C 250.324219 257.707031 246.46875 250.691406 243.542969 245.664062 C 229.863281 222.632812 224.71875 215.847656 226.125 183.578125 C 223.082031 184.515625 210.574219 196.910156 209.636719 198.546875 C 210.691406 194.101562 218.757812 185.566406 221.5625 183.230469 C 226.824219 178.785156 231.269531 175.863281 237.699219 172.355469 C 252.195312 164.054688 265.640625 161.363281 266.226562 146.398438 C 273.359375 141.605469 274.058594 128.976562 271.488281 122.664062 C 269.851562 118.457031 268.449219 118.6875 266.929688 116.703125 C 271.839844 114.363281 271.839844 109.570312 266.929688 107.113281 C 254.886719 101.152344 232.4375 115.765625 223.433594 111.324219 C 224.484375 109.101562 226.007812 109.101562 229.046875 108.398438 C 226.589844 105.476562 222.382812 101.734375 218.523438 99.28125 C 210.804688 94.371094 208 95.304688 204.609375 93.667969 C 206.363281 92.265625 205.894531 92.851562 208 92.03125 C 208 92.03125 208.703125 92.03125 209.167969 91.445312 L 201.453125 90.628906 C 195.023438 90.277344 188.824219 93.316406 186.722656 93.316406 Z M 186.722656 93.316406 " fill-opacity="1" fill-rule="evenodd"/></g><path fill="#e91e63" d="M 19.640625 349.722656 C 25.605469 348.085938 31.101562 345.746094 37.882812 343.992188 C 59.394531 338.730469 81.609375 337.328125 103.355469 341.304688 C 129.546875 346.214844 163.804688 350.425781 191.867188 346.800781 C 189.996094 345.980469 172.457031 344.460938 168.597656 343.992188 C 146.382812 340.953125 122.648438 334.757812 102.890625 332.066406 C 85.117188 329.730469 71.789062 330.195312 55.304688 333.820312 C 45.949219 335.808594 34.960938 339.902344 26.890625 344.695312 C 23.851562 346.566406 21.980469 348.085938 19.640625 349.722656 Z M 19.640625 349.722656 " fill-opacity="1" fill-rule="evenodd"/><path fill="#f5f5f5" d="M 190.34375 210.003906 C 191.046875 208.015625 192.800781 203.691406 192.683594 201.46875 C 186.722656 198.777344 180.757812 205.210938 179.003906 208.601562 C 180.523438 209.535156 188.476562 209.886719 190.34375 210.003906 Z M 190.34375 210.003906 " fill-opacity="1" fill-rule="evenodd"/><g clip-path="url(#a19e1d422d)"><path fill="#e91e63" d="M 23.148438 183.347656 C 19.640625 170.367188 17.890625 156.6875 18.238281 143.125 C 18.707031 117.871094 26.425781 92.964844 41.855469 72.621094 C 49.574219 62.449219 58.925781 53.796875 69.683594 47.015625 C 100.667969 27.375 135.976562 28.777344 167.664062 45.730469 C 170.234375 47.132812 172.691406 48.539062 175.144531 50.058594 C 176.78125 50.992188 178.417969 52.042969 180.058594 53.097656 C 180.757812 53.566406 183.332031 55.085938 184.148438 55.085938 C 185.199219 54.96875 188.59375 51.34375 189.410156 50.640625 C 205.546875 34.742188 224.136719 23.632812 247.285156 22.464844 C 268.800781 21.410156 289.261719 27.492188 307.5 38.597656 C 323.632812 48.421875 338.015625 62.21875 348.773438 77.765625 C 350.875 80.808594 352.980469 83.964844 354.851562 87.238281 C 356.722656 90.511719 358.476562 93.785156 360.230469 97.175781 C 361.046875 98.8125 361.75 100.332031 362.570312 101.96875 C 370.519531 119.625 373.792969 139.148438 373.324219 158.441406 C 372.972656 173.058594 370.519531 187.789062 366.078125 201.820312 C 362.6875 212.457031 358.710938 222.632812 353.449219 232.570312 C 349.589844 239.933594 345.265625 247.066406 340.820312 254.082031 C 325.855469 278.050781 305.511719 302.953125 279.90625 315.464844 C 315.917969 280.738281 359.644531 198.195312 355.789062 147.683594 C 354.617188 131.785156 350.292969 116.117188 343.394531 101.851562 C 337.546875 90.042969 329.832031 78.585938 320.476562 69.230469 C 307.734375 56.722656 291.011719 47.71875 273.59375 43.625 C 247.167969 37.429688 220.160156 42.574219 199.699219 61.164062 C 196.894531 63.621094 194.671875 66.425781 192.332031 69.230469 C 190.695312 71.335938 188.59375 73.910156 185.785156 74.492188 C 184.148438 74.726562 182.628906 74.257812 181.109375 73.441406 C 180.289062 72.972656 179.472656 72.273438 178.652344 71.6875 C 177.484375 70.636719 176.316406 69.699219 175.144531 68.648438 C 171.753906 66.074219 168.246094 63.503906 164.625 61.398438 C 135.511719 44.328125 105.929688 43.394531 76.113281 59.058594 C 32.269531 82.210938 22.917969 133.070312 30.867188 178.203125 C 32.855469 189.660156 38.351562 214.097656 41.390625 225.554688 C 33.320312 211.992188 27.242188 198.664062 23.148438 183.347656 Z M 23.148438 183.347656 " fill-opacity="1" fill-rule="evenodd"/></g></svg>