<?xml version="1.0" standalone="no"?>
<!DOCTYPE svg PUBLIC "-//W3C//DTD SVG 20010904//EN"
 "http://www.w3.org/TR/2001/REC-SVG-20010904/DTD/svg10.dtd">
<svg version="1.0" xmlns="http://www.w3.org/2000/svg"
 width="1024.000000pt" height="1536.000000pt" viewBox="0 0 1024.000000 1536.000000"
 preserveAspectRatio="xMidYMid meet">

<g transform="translate(0.000000,1536.000000) scale(0.100000,-0.100000)"
fill="#000000" stroke="none">
<path d="M2875 11923 c-728 -61 -1352 -404 -1789 -983 -383 -507 -558 -1149
-507 -1850 79 -1068 693 -2240 1841 -3515 166 -185 699 -725 954 -968 314
-298 872 -789 1191 -1047 105 -85 246 -200 314 -257 107 -88 131 -104 178
-113 57 -12 116 -7 170 16 33 13 226 159 383 289 47 39 119 97 160 130 106 84
544 460 675 579 327 298 579 538 830 791 l281 282 61 -58 c111 -103 251 -186
393 -231 65 -20 95 -23 230 -23 172 0 244 15 299 61 32 27 41 64 19 81 -7 5
-53 17 -101 27 -234 44 -463 165 -627 331 l-64 64 120 123 c299 307 602 687
869 1088 505 759 791 1452 892 2161 25 178 25 654 0 823 -93 622 -326 1095
-739 1503 -198 196 -369 319 -613 439 -395 194 -874 288 -1307 256 -679 -49
-1233 -302 -1747 -798 l-118 -113 -49 50 c-256 263 -614 515 -914 645 -376
162 -895 250 -1285 217z m345 -403 c488 -33 922 -207 1320 -527 97 -78 307
-284 464 -455 59 -65 114 -118 121 -118 8 0 79 71 158 158 253 277 440 442
657 584 530 346 1167 449 1788 288 476 -123 911 -441 1189 -867 77 -117 184
-343 232 -489 165 -493 159 -1087 -16 -1663 -69 -231 -186 -526 -306 -776
l-52 -107 0 263 c0 281 -10 391 -52 593 -73 351 -199 588 -399 747 -132 105
-257 169 -488 250 -136 48 -179 76 -210 137 -42 82 -42 111 -5 199 140 336 88
658 -140 864 -211 190 -523 237 -797 120 -109 -47 -197 -105 -274 -181 -134
-132 -168 -249 -85 -293 25 -12 25 -15 28 -162 3 -112 8 -162 21 -197 18 -47
18 -49 -10 -150 -34 -125 -35 -162 -5 -191 17 -17 32 -22 70 -21 l49 2 21 -49
c11 -27 45 -94 76 -149 71 -126 105 -153 205 -158 43 -3 89 2 131 14 35 9 80
18 99 18 30 1 37 -4 57 -39 12 -22 22 -43 20 -46 -1 -4 -45 -35 -97 -70 -178
-118 -325 -289 -426 -494 -50 -104 -114 -286 -114 -327 0 -48 216 -260 344
-337 31 -19 59 -32 62 -29 2 3 0 59 -6 124 -6 66 -12 139 -14 162 -6 68 7 38
43 -98 68 -256 111 -340 281 -555 61 -77 116 -155 122 -172 7 -18 15 -33 19
-33 25 0 215 56 305 90 127 47 185 79 237 128 l37 36 0 296 c0 308 12 539 32
617 9 39 13 44 23 30 8 -12 14 -108 18 -309 3 -161 11 -372 18 -468 8 -128 8
-184 0 -211 -28 -92 -187 -170 -549 -269 -268 -73 -520 -116 -635 -108 -57 3
-73 9 -121 43 -150 107 -277 163 -434 190 -102 19 -161 19 -168 1 -9 -24 16
-95 39 -110 12 -8 53 -19 91 -26 81 -13 113 -27 98 -42 -7 -7 -49 -6 -131 2
-230 24 -362 1 -369 -64 -7 -61 46 -88 225 -116 114 -17 156 -31 142 -45 -3
-3 -68 1 -145 7 -76 7 -161 12 -189 13 -47 0 -50 -2 -53 -27 -7 -64 42 -95
217 -139 64 -17 120 -35 126 -41 10 -11 -3 -10 -199 9 l-68 6 7 -24 c11 -37
35 -59 97 -90 124 -63 286 -109 380 -109 61 0 202 28 297 59 46 15 102 20 321
25 388 9 681 40 955 101 365 82 498 162 596 360 l40 80 -6 -50 c-20 -152 -85
-271 -183 -334 -110 -70 -335 -138 -602 -181 -74 -12 -137 -23 -139 -26 -2 -2
10 -57 27 -121 82 -311 82 -452 0 -547 l-33 -38 3 126 c3 96 -1 151 -17 234
-25 128 -65 266 -87 300 l-16 25 -122 -7 c-66 -4 -251 -11 -411 -16 -329 -9
-399 -21 -540 -90 -100 -49 -148 -88 -195 -162 -53 -82 -74 -166 -68 -275 7
-123 37 -184 143 -290 l82 -83 -169 0 c-143 0 -177 -3 -225 -20 -67 -24 -117
-61 -158 -119 -25 -35 -30 -52 -30 -99 0 -32 4 -65 9 -74 8 -17 -5 -18 -193
-18 l-201 0 43 58 c55 75 232 458 452 977 l17 40 23 -90 c37 -147 101 -325
116 -325 5 0 6 19 3 43 -13 102 44 285 121 386 20 25 34 50 33 56 -2 5 -52 25
-113 43 -143 43 -221 81 -284 138 -65 58 -85 95 -78 145 3 27 1 39 -9 43 -45
17 -68 123 -39 179 10 21 12 34 5 47 -18 33 -11 95 13 131 35 51 97 81 181 87
l72 4 -4 69 c-4 63 -2 70 23 95 27 27 28 27 133 21 191 -11 380 -71 530 -170
37 -25 83 -53 102 -63 56 -29 159 -22 393 28 27 5 47 15 47 23 0 18 -104 156
-181 239 -35 38 -143 138 -239 221 -211 183 -304 280 -375 388 -46 72 -135
258 -135 284 0 5 -5 14 -11 20 -9 9 -42 -3 -131 -48 -167 -84 -251 -91 -324
-27 -104 91 -120 261 -50 532 20 77 34 148 30 158 -7 24 11 23 36 -2 25 -25
25 -54 -1 -182 -59 -297 -22 -458 105 -458 72 0 343 143 401 211 36 44 34 109
-6 185 -76 145 -253 353 -350 411 -102 61 -255 79 -400 49 -99 -21 -158 -56
-224 -130 -44 -50 -67 -69 -99 -77 -22 -7 -136 -14 -253 -18 -241 -7 -241 -7
-254 -88 -13 -84 15 -212 66 -298 55 -94 130 -142 305 -195 218 -66 267 -121
365 -410 79 -234 98 -346 99 -600 1 -207 -7 -257 -37 -247 -14 4 -22 60 -32
230 l-7 126 -91 51 c-51 28 -128 80 -172 116 -44 35 -103 76 -131 90 -66 32
-170 42 -265 24 -67 -13 -72 -12 -117 9 -26 13 -191 84 -367 158 -176 74 -366
155 -422 180 l-102 45 -22 57 c-113 302 -221 600 -239 661 -31 106 -85 231
-143 327 l-49 83 41 49 c23 28 51 53 62 56 11 4 58 -7 108 -24 105 -36 159
-39 243 -10 83 28 152 74 223 150 191 204 280 486 231 727 -51 253 -214 426
-466 498 -97 27 -312 26 -395 -3 -97 -35 -155 -72 -236 -152 -125 -125 -186
-262 -196 -442 -6 -107 8 -210 38 -279 24 -53 18 -88 -19 -128 -21 -22 -62
-40 -187 -80 -246 -79 -382 -152 -562 -304 -332 -280 -584 -703 -853 -1436
l-53 -143 -43 95 c-155 342 -258 674 -305 986 -30 197 -33 575 -5 755 112 736
520 1320 1141 1633 274 139 533 201 915 220 14 1 90 -3 170 -8z m2244 -2545
c31 -29 33 -53 5 -89 -24 -30 -63 -34 -91 -9 -24 21 -23 48 3 89 25 40 47 43
83 9z m-2727 -340 c158 -310 380 -650 509 -779 163 -163 373 -257 1004 -451
106 -32 146 -65 163 -130 14 -57 42 -81 59 -51 6 11 26 36 44 55 27 30 36 34
51 25 31 -19 26 -49 -17 -99 -22 -26 -39 -52 -37 -59 2 -6 17 -19 34 -28 l30
-18 46 46 c52 51 80 55 85 12 2 -20 -7 -39 -40 -74 l-43 -46 24 -19 c32 -26
55 -24 93 10 18 15 44 34 57 40 52 28 54 -41 1 -72 -44 -27 -39 -52 17 -81 45
-22 124 -21 155 3 13 11 50 24 83 30 32 6 66 18 75 26 9 8 31 15 49 15 86 0
137 56 129 141 -9 93 -121 288 -210 363 -26 22 -68 44 -107 57 -61 18 -111 51
-111 71 0 21 55 30 110 18 127 -28 222 -104 303 -241 63 -108 98 -265 73 -336
-6 -20 1 -28 56 -62 122 -76 112 -57 105 -195 -12 -249 -79 -538 -215 -916
-58 -164 -90 -213 -143 -225 -34 -8 -135 -68 -172 -103 -67 -63 -100 -167 -73
-225 8 -17 -19 -18 -615 -15 -609 3 -625 4 -663 24 -49 25 -79 64 -78 101 0
15 34 156 76 313 224 852 277 1063 283 1123 17 190 -78 349 -259 436 -109 51
-319 118 -603 192 -126 33 -254 67 -282 76 l-53 17 115 224 115 225 -80 132
c-146 241 -230 445 -230 555 1 42 2 44 16 25 8 -11 40 -69 71 -130z m-502
-1835 c147 -21 821 -129 842 -135 9 -3 9 -15 -2 -52 -25 -85 -76 -311 -135
-606 -32 -159 -61 -291 -63 -293 -5 -5 -172 172 -319 336 -185 208 -406 485
-583 729 l-39 54 80 -7 c43 -4 142 -16 219 -26z"/>
</g>
</svg>
