<?xml version="1.0" standalone="no"?>
<!DOCTYPE svg PUBLIC "-//W3C//DTD SVG 20010904//EN"
 "http://www.w3.org/TR/2001/REC-SVG-20010904/DTD/svg10.dtd">
<svg version="1.0" xmlns="http://www.w3.org/2000/svg"
 width="512.000000pt" height="512.000000pt" viewBox="0 0 512.000000 512.000000"
 preserveAspectRatio="xMidYMid meet">

<g transform="translate(0.000000,512.000000) scale(0.100000,-0.100000)"
fill="#000000" stroke="none">
<path d="M1743 4710 c-12 -5 -26 -18 -32 -29 -8 -13 -11 -220 -11 -640 l0
-621 -624 0 c-599 0 -625 -1 -647 -19 l-24 -19 -3 -804 c-2 -560 1 -811 8
-829 6 -15 23 -31 36 -38 18 -8 204 -11 639 -11 l615 0 0 -615 c0 -429 3 -621
11 -638 6 -14 22 -30 36 -36 34 -16 1592 -16 1626 0 14 6 30 22 36 36 8 17 11
209 11 638 l0 615 615 0 c429 0 621 3 638 11 14 6 30 22 36 36 16 34 16 1592
0 1626 -6 14 -22 30 -36 36 -17 8 -209 11 -638 11 l-615 0 0 615 c0 429 -3
621 -11 638 -6 14 -22 30 -36 36 -29 14 -1596 15 -1630 1z m663 -1411 c57 -54
87 -122 92 -209 5 -93 -10 -151 -51 -196 -37 -41 -97 -55 -147 -34 -114 47
-176 270 -112 397 34 65 67 86 130 81 43 -4 59 -11 88 -39z m471 21 c54 -32
78 -91 78 -190 0 -162 -81 -280 -194 -280 -37 0 -49 6 -81 38 -48 47 -64 103
-58 202 7 107 56 196 133 238 31 18 87 14 122 -8z m295 -460 c93 -101 -7 -340
-143 -340 -65 0 -99 51 -99 149 0 70 36 149 86 189 62 50 111 50 156 2z
m-1092 15 c62 -32 110 -127 110 -217 0 -187 -190 -187 -260 0 -58 154 29 280
150 217z m619 -134 c76 -29 121 -68 153 -136 15 -33 28 -65 28 -72 0 -27 53
-130 83 -161 18 -19 62 -51 98 -73 115 -67 156 -134 146 -237 -11 -102 -86
-173 -211 -199 -89 -18 -160 -4 -286 58 -138 69 -156 69 -296 2 -128 -62 -196
-78 -274 -63 -120 23 -199 88 -220 182 -24 105 15 176 140 259 111 74 137 107
184 230 46 120 93 175 179 208 71 27 207 28 276 2z"/>
</g>
</svg>
